<svg xmlns="http://www.w3.org/2000/svg" viewBox="0 0 800 560" role="img" aria-labelledby="title desc">
  <title id="title">Archivo Viviente</title>
  <desc id="desc">living archive made of books and constellations; art direction: maximalist library painting; collaborative atelier finish.</desc>
  <defs>
    <linearGradient id="bg" x1="0" y1="0" x2="1" y2="1"><stop stop-color="#050b12"/><stop offset=".52" stop-color="#071827"/><stop offset="1" stop-color="#10335b"/></linearGradient>
    <linearGradient id="body" x1="0" y1="0" x2="0" y2="1"><stop stop-color="#2769ad"/><stop offset=".56" stop-color="#102744"/><stop offset="1" stop-color="#050b12"/></linearGradient>
    <radialGradient id="ember" cx=".5" cy=".45" r=".62"><stop stop-color="#efffff"/><stop offset=".34" stop-color="#bff8ff"/><stop offset=".72" stop-color="#53d9ef"/><stop offset="1" stop-color="#2769ad"/></radialGradient>
    <filter id="soft"><feGaussianBlur stdDeviation="18"/></filter>
    <filter id="paint"><feDropShadow dx="0" dy="16" stdDeviation="14" flood-color="#000" flood-opacity=".46"/><feDropShadow dx="0" dy="0" stdDeviation="7" flood-color="#bff8ff" flood-opacity=".2"/></filter>
    <pattern id="grain" width="64" height="64" patternUnits="userSpaceOnUse"><path d="M0 13h64M0 37h64M19 0v64M43 0v64" stroke="#efffff" stroke-width="1" opacity=".025"/></pattern>
  </defs>
  <rect width="800" height="560" fill="url(#bg)"/>
  <circle cx="268" cy="180" r="190" fill="#53d9ef" opacity=".13" filter="url(#soft)"/>
  <circle cx="540" cy="318" r="148" fill="#bff8ff" opacity=".08" filter="url(#soft)"/>
  <circle cx="423" cy="389" r="4" fill="#bff8ff" opacity="0.09"/><circle cx="602" cy="342" r="8" fill="#53d9ef" opacity="0.125"/><circle cx="781" cy="295" r="3" fill="#53d9ef" opacity="0.16"/><circle cx="140" cy="248" r="7" fill="#bff8ff" opacity="0.195"/><circle cx="319" cy="201" r="2" fill="#53d9ef" opacity="0.09"/><circle cx="498" cy="154" r="6" fill="#53d9ef" opacity="0.125"/><circle cx="677" cy="107" r="10" fill="#bff8ff" opacity="0.16"/><circle cx="36" cy="60" r="5" fill="#53d9ef" opacity="0.195"/><circle cx="215" cy="13" r="9" fill="#53d9ef" opacity="0.09"/><circle cx="394" cy="486" r="4" fill="#bff8ff" opacity="0.125"/><circle cx="573" cy="439" r="8" fill="#53d9ef" opacity="0.16"/><circle cx="752" cy="392" r="3" fill="#53d9ef" opacity="0.195"/><circle cx="111" cy="345" r="7" fill="#bff8ff" opacity="0.09"/><circle cx="290" cy="298" r="2" fill="#53d9ef" opacity="0.125"/><circle cx="469" cy="251" r="6" fill="#53d9ef" opacity="0.16"/><circle cx="648" cy="204" r="10" fill="#bff8ff" opacity="0.195"/><circle cx="7" cy="157" r="5" fill="#53d9ef" opacity="0.09"/><circle cx="186" cy="110" r="9" fill="#53d9ef" opacity="0.125"/><path d="M-30 81 C 145 36, 270 117, 445 76 S 730 41, 835 93" fill="none" stroke="#425f79" stroke-width="10" opacity=".055"/><path d="M-30 129 C 145 84, 270 165, 445 124 S 730 89, 835 141" fill="none" stroke="#425f79" stroke-width="12" opacity=".055"/><path d="M-30 177 C 145 132, 270 213, 445 172 S 730 137, 835 189" fill="none" stroke="#425f79" stroke-width="14" opacity=".055"/><path d="M-30 225 C 145 180, 270 261, 445 220 S 730 185, 835 237" fill="none" stroke="#425f79" stroke-width="16" opacity=".055"/><path d="M-30 273 C 145 228, 270 309, 445 268 S 730 233, 835 285" fill="none" stroke="#425f79" stroke-width="18" opacity=".055"/><path d="M-30 321 C 145 276, 270 357, 445 316 S 730 281, 835 333" fill="none" stroke="#425f79" stroke-width="20" opacity=".055"/><path d="M-30 369 C 145 324, 270 405, 445 364 S 730 329, 835 381" fill="none" stroke="#425f79" stroke-width="22" opacity=".055"/><path d="M-30 417 C 145 372, 270 453, 445 412 S 730 377, 835 429" fill="none" stroke="#425f79" stroke-width="24" opacity=".055"/>
  <path d="195.23,177 145,206 94.77,177 94.77,119 145,90 195.23,119" fill="none" stroke="#bff8ff" stroke-width="4" opacity=".22"/><path d="721.19,211.73 653.95,247.91 583.73,217.9 563.41,144.29 608.3,82.51 684.59,79.08 734.83,136.59" fill="none" stroke="#9c8cff" stroke-width="5" opacity=".2"/><path d="M186 488 399 122 614 489" fill="none" stroke="#53d9ef" stroke-width="3" opacity=".14"/>
  <path d="M0 402c121-49 229-34 323-4 80 26 168-52 266-18 70 24 133 20 211-11v191H0Z" fill="#06101a"/><path d="M0 475c177-26 279 19 419-8 142-27 249-16 381 19v74H0Z" fill="#050b12"/>
  <g filter="url(#paint)"><path d="M404 120 540 218l-36 213-104 83-113-78-32-217Z" fill="url(#body)" stroke="#9c8cff" stroke-width="8"/><path d="M404 154 487 231 456 380 400 427 339 383 316 230Z" fill="#2769ad" opacity=".68"/><path d="454.69,319 401,350 347.31,319 347.31,257 401,226 454.69,257" fill="url(#ember)" opacity=".85"/><path d="M284 294 147 362l35 62 112-53Z" fill="#102744" stroke="#53d9ef" stroke-width="5"/><path d="M519 294 653 363l-33 62-114-52Z" fill="#102744" stroke="#53d9ef" stroke-width="5"/></g>
  <rect width="800" height="560" fill="url(#grain)"/>
  <path d="M24 24h752v512H24Z" fill="none" stroke="#efffff" stroke-width="2" opacity=".055"/>
</svg>
