<svg xmlns="http://www.w3.org/2000/svg" viewBox="0 0 800 560" role="img" aria-labelledby="title desc">
  <title id="title">Ariete Volcanico</title>
  <desc id="desc">heavy volcanic siege ram at impact; art direction: low angle cinematic; collaborative atelier finish.</desc>
  <defs>
    <linearGradient id="bg" x1="0" y1="0" x2="1" y2="1"><stop stop-color="#090506"/><stop offset=".52" stop-color="#1b0b0d"/><stop offset="1" stop-color="#431415"/></linearGradient>
    <linearGradient id="body" x1="0" y1="0" x2="0" y2="1"><stop stop-color="#7a241b"/><stop offset=".56" stop-color="#2b1110"/><stop offset="1" stop-color="#090506"/></linearGradient>
    <radialGradient id="ember" cx=".5" cy=".45" r=".62"><stop stop-color="#fff0ba"/><stop offset=".34" stop-color="#ffb342"/><stop offset=".72" stop-color="#e35b22"/><stop offset="1" stop-color="#7a241b"/></radialGradient>
    <filter id="soft"><feGaussianBlur stdDeviation="18"/></filter>
    <filter id="paint"><feDropShadow dx="0" dy="16" stdDeviation="14" flood-color="#000" flood-opacity=".46"/><feDropShadow dx="0" dy="0" stdDeviation="7" flood-color="#ffb342" flood-opacity=".2"/></filter>
    <pattern id="grain" width="64" height="64" patternUnits="userSpaceOnUse"><path d="M0 13h64M0 37h64M19 0v64M43 0v64" stroke="#fff0ba" stroke-width="1" opacity=".025"/></pattern>
  </defs>
  <rect width="800" height="560" fill="url(#bg)"/>
  <circle cx="566" cy="205" r="190" fill="#e35b22" opacity=".13" filter="url(#soft)"/>
  <circle cx="288" cy="358" r="148" fill="#ffb342" opacity=".08" filter="url(#soft)"/>
  <circle cx="33" cy="239" r="10" fill="#ffb342" opacity="0.09"/><circle cx="742" cy="142" r="5" fill="#e35b22" opacity="0.125"/><circle cx="631" cy="45" r="9" fill="#e35b22" opacity="0.16"/><circle cx="520" cy="468" r="4" fill="#ffb342" opacity="0.195"/><circle cx="409" cy="371" r="8" fill="#e35b22" opacity="0.09"/><circle cx="298" cy="274" r="3" fill="#e35b22" opacity="0.125"/><circle cx="187" cy="177" r="7" fill="#ffb342" opacity="0.16"/><circle cx="76" cy="80" r="2" fill="#e35b22" opacity="0.195"/><circle cx="785" cy="503" r="6" fill="#e35b22" opacity="0.09"/><circle cx="674" cy="406" r="10" fill="#ffb342" opacity="0.125"/><circle cx="563" cy="309" r="5" fill="#e35b22" opacity="0.16"/><circle cx="452" cy="212" r="9" fill="#e35b22" opacity="0.195"/><circle cx="341" cy="115" r="4" fill="#ffb342" opacity="0.09"/><circle cx="230" cy="18" r="8" fill="#e35b22" opacity="0.125"/><circle cx="119" cy="441" r="3" fill="#e35b22" opacity="0.16"/><circle cx="8" cy="344" r="7" fill="#ffb342" opacity="0.195"/><circle cx="717" cy="247" r="2" fill="#e35b22" opacity="0.09"/><circle cx="606" cy="150" r="6" fill="#e35b22" opacity="0.125"/><path d="M-30 85 C 145 40, 270 121, 445 80 S 730 45, 835 97" fill="none" stroke="#4f3430" stroke-width="10" opacity=".055"/><path d="M-30 133 C 145 88, 270 169, 445 128 S 730 93, 835 145" fill="none" stroke="#4f3430" stroke-width="12" opacity=".055"/><path d="M-30 181 C 145 136, 270 217, 445 176 S 730 141, 835 193" fill="none" stroke="#4f3430" stroke-width="14" opacity=".055"/><path d="M-30 229 C 145 184, 270 265, 445 224 S 730 189, 835 241" fill="none" stroke="#4f3430" stroke-width="16" opacity=".055"/><path d="M-30 277 C 145 232, 270 313, 445 272 S 730 237, 835 289" fill="none" stroke="#4f3430" stroke-width="18" opacity=".055"/><path d="M-30 325 C 145 280, 270 361, 445 320 S 730 285, 835 337" fill="none" stroke="#4f3430" stroke-width="20" opacity=".055"/><path d="M-30 373 C 145 328, 270 409, 445 368 S 730 333, 835 385" fill="none" stroke="#4f3430" stroke-width="22" opacity=".055"/><path d="M-30 421 C 145 376, 270 457, 445 416 S 730 381, 835 433" fill="none" stroke="#4f3430" stroke-width="24" opacity=".055"/>
  <path d="M78 122 188 159 91 183Z" fill="#e35b22" opacity=".16"/><path d="M586 86 746 118 614 164Z" fill="#ffb342" opacity=".1"/><path d="M278 508 330 368 378 508Z" fill="#e35b22" opacity=".35"/>
  <path d="M0 392c96-45 191-64 285-31 87 31 156-47 255-20 98 26 165-31 260-3v222H0Z" fill="#10080a"/><path d="M0 456c146-28 262 26 409-1 134-25 244-10 391 28v77H0Z" fill="#090506"/>
  <g filter="url(#paint)"><path d="M132 370 499 248l140 58 41 102-386 53Z" fill="url(#body)" stroke="#b99754" stroke-width="8"/><path d="M493 251 708 251 633 308Z" fill="url(#ember)" stroke="#fff0ba" stroke-width="5"/><circle cx="246" cy="440" r="52" fill="#2b1110" stroke="#e35b22" stroke-width="9"/><circle cx="505" cy="408" r="58" fill="#2b1110" stroke="#e35b22" stroke-width="9"/><path d="M137 342c125-61 251-92 381-109" stroke="#ffb342" stroke-width="8" opacity=".45"/></g>
  <rect width="800" height="560" fill="url(#grain)"/>
  <path d="M24 24h752v512H24Z" fill="none" stroke="#fff0ba" stroke-width="2" opacity=".055"/>
</svg>
