<svg xmlns="http://www.w3.org/2000/svg" viewBox="0 0 800 560" role="img" aria-labelledby="title desc">
  <title id="title">Centinela de Cristal</title>
  <desc id="desc">faceted crystal guardian before runic gate; art direction: prismatic concept art; collaborative atelier finish.</desc>
  <defs>
    <linearGradient id="bg" x1="0" y1="0" x2="1" y2="1"><stop stop-color="#050b12"/><stop offset=".52" stop-color="#071827"/><stop offset="1" stop-color="#10335b"/></linearGradient>
    <linearGradient id="body" x1="0" y1="0" x2="0" y2="1"><stop stop-color="#2769ad"/><stop offset=".56" stop-color="#102744"/><stop offset="1" stop-color="#050b12"/></linearGradient>
    <radialGradient id="ember" cx=".5" cy=".45" r=".62"><stop stop-color="#efffff"/><stop offset=".34" stop-color="#bff8ff"/><stop offset=".72" stop-color="#53d9ef"/><stop offset="1" stop-color="#2769ad"/></radialGradient>
    <filter id="soft"><feGaussianBlur stdDeviation="18"/></filter>
    <filter id="paint"><feDropShadow dx="0" dy="16" stdDeviation="14" flood-color="#000" flood-opacity=".46"/><feDropShadow dx="0" dy="0" stdDeviation="7" flood-color="#bff8ff" flood-opacity=".2"/></filter>
    <pattern id="grain" width="64" height="64" patternUnits="userSpaceOnUse"><path d="M0 13h64M0 37h64M19 0v64M43 0v64" stroke="#efffff" stroke-width="1" opacity=".025"/></pattern>
  </defs>
  <rect width="800" height="560" fill="url(#bg)"/>
  <circle cx="268" cy="180" r="190" fill="#53d9ef" opacity=".13" filter="url(#soft)"/>
  <circle cx="540" cy="318" r="148" fill="#bff8ff" opacity=".08" filter="url(#soft)"/>
  <circle cx="384" cy="212" r="2" fill="#bff8ff" opacity="0.09"/><circle cx="206" cy="106" r="6" fill="#53d9ef" opacity="0.125"/><circle cx="28" cy="520" r="10" fill="#53d9ef" opacity="0.16"/><circle cx="670" cy="414" r="5" fill="#bff8ff" opacity="0.195"/><circle cx="492" cy="308" r="9" fill="#53d9ef" opacity="0.09"/><circle cx="314" cy="202" r="4" fill="#53d9ef" opacity="0.125"/><circle cx="136" cy="96" r="8" fill="#bff8ff" opacity="0.16"/><circle cx="778" cy="510" r="3" fill="#53d9ef" opacity="0.195"/><circle cx="600" cy="404" r="7" fill="#53d9ef" opacity="0.09"/><circle cx="422" cy="298" r="2" fill="#bff8ff" opacity="0.125"/><circle cx="244" cy="192" r="6" fill="#53d9ef" opacity="0.16"/><circle cx="66" cy="86" r="10" fill="#53d9ef" opacity="0.195"/><circle cx="708" cy="500" r="5" fill="#bff8ff" opacity="0.09"/><circle cx="530" cy="394" r="9" fill="#53d9ef" opacity="0.125"/><circle cx="352" cy="288" r="4" fill="#53d9ef" opacity="0.16"/><circle cx="174" cy="182" r="8" fill="#bff8ff" opacity="0.195"/><circle cx="-4" cy="76" r="3" fill="#53d9ef" opacity="0.09"/><circle cx="638" cy="490" r="7" fill="#53d9ef" opacity="0.125"/><path d="M-30 92 C 145 47, 270 128, 445 87 S 730 52, 835 104" fill="none" stroke="#425f79" stroke-width="10" opacity=".055"/><path d="M-30 140 C 145 95, 270 176, 445 135 S 730 100, 835 152" fill="none" stroke="#425f79" stroke-width="12" opacity=".055"/><path d="M-30 188 C 145 143, 270 224, 445 183 S 730 148, 835 200" fill="none" stroke="#425f79" stroke-width="14" opacity=".055"/><path d="M-30 236 C 145 191, 270 272, 445 231 S 730 196, 835 248" fill="none" stroke="#425f79" stroke-width="16" opacity=".055"/><path d="M-30 284 C 145 239, 270 320, 445 279 S 730 244, 835 296" fill="none" stroke="#425f79" stroke-width="18" opacity=".055"/><path d="M-30 332 C 145 287, 270 368, 445 327 S 730 292, 835 344" fill="none" stroke="#425f79" stroke-width="20" opacity=".055"/><path d="M-30 380 C 145 335, 270 416, 445 375 S 730 340, 835 392" fill="none" stroke="#425f79" stroke-width="22" opacity=".055"/><path d="M-30 428 C 145 383, 270 464, 445 423 S 730 388, 835 440" fill="none" stroke="#425f79" stroke-width="24" opacity=".055"/>
  <path d="195.23,177 145,206 94.77,177 94.77,119 145,90 195.23,119" fill="none" stroke="#bff8ff" stroke-width="4" opacity=".22"/><path d="721.19,211.73 653.95,247.91 583.73,217.9 563.41,144.29 608.3,82.51 684.59,79.08 734.83,136.59" fill="none" stroke="#9c8cff" stroke-width="5" opacity=".2"/><path d="M186 488 399 122 614 489" fill="none" stroke="#53d9ef" stroke-width="3" opacity=".14"/>
  <path d="M0 402c121-49 229-34 323-4 80 26 168-52 266-18 70 24 133 20 211-11v191H0Z" fill="#06101a"/><path d="M0 475c177-26 279 19 419-8 142-27 249-16 381 19v74H0Z" fill="#050b12"/>
  <g filter="url(#paint)"><path d="M404 120 540 218l-36 213-104 83-113-78-32-217Z" fill="url(#body)" stroke="#9c8cff" stroke-width="8"/><path d="M404 154 487 231 456 380 400 427 339 383 316 230Z" fill="#2769ad" opacity=".68"/><path d="454.69,319 401,350 347.31,319 347.31,257 401,226 454.69,257" fill="url(#ember)" opacity=".85"/><path d="M284 294 147 362l35 62 112-53Z" fill="#102744" stroke="#53d9ef" stroke-width="5"/><path d="M519 294 653 363l-33 62-114-52Z" fill="#102744" stroke="#53d9ef" stroke-width="5"/></g>
  <rect width="800" height="560" fill="url(#grain)"/>
  <path d="M24 24h752v512H24Z" fill="none" stroke="#efffff" stroke-width="2" opacity=".055"/>
</svg>
