<svg xmlns="http://www.w3.org/2000/svg" viewBox="0 0 800 560" role="img" aria-labelledby="title desc">
  <title id="title">Convergencia Astral</title>
  <desc id="desc">aligned orbits folding a traveler through space; art direction: clean cosmic geometry; collaborative atelier finish.</desc>
  <defs>
    <linearGradient id="bg" x1="0" y1="0" x2="1" y2="1"><stop stop-color="#050b12"/><stop offset=".52" stop-color="#071827"/><stop offset="1" stop-color="#10335b"/></linearGradient>
    <linearGradient id="body" x1="0" y1="0" x2="0" y2="1"><stop stop-color="#2769ad"/><stop offset=".56" stop-color="#102744"/><stop offset="1" stop-color="#050b12"/></linearGradient>
    <radialGradient id="ember" cx=".5" cy=".45" r=".62"><stop stop-color="#efffff"/><stop offset=".34" stop-color="#bff8ff"/><stop offset=".72" stop-color="#53d9ef"/><stop offset="1" stop-color="#2769ad"/></radialGradient>
    <filter id="soft"><feGaussianBlur stdDeviation="18"/></filter>
    <filter id="paint"><feDropShadow dx="0" dy="16" stdDeviation="14" flood-color="#000" flood-opacity=".46"/><feDropShadow dx="0" dy="0" stdDeviation="7" flood-color="#bff8ff" flood-opacity=".2"/></filter>
    <pattern id="grain" width="64" height="64" patternUnits="userSpaceOnUse"><path d="M0 13h64M0 37h64M19 0v64M43 0v64" stroke="#efffff" stroke-width="1" opacity=".025"/></pattern>
  </defs>
  <rect width="800" height="560" fill="url(#bg)"/>
  <circle cx="268" cy="180" r="190" fill="#53d9ef" opacity=".13" filter="url(#soft)"/>
  <circle cx="540" cy="318" r="148" fill="#bff8ff" opacity=".08" filter="url(#soft)"/>
  <circle cx="50" cy="450" r="9" fill="#bff8ff" opacity="0.09"/><circle cx="410" cy="250" r="4" fill="#53d9ef" opacity="0.125"/><circle cx="770" cy="50" r="8" fill="#53d9ef" opacity="0.16"/><circle cx="310" cy="370" r="3" fill="#bff8ff" opacity="0.195"/><circle cx="670" cy="170" r="7" fill="#53d9ef" opacity="0.09"/><circle cx="210" cy="490" r="2" fill="#53d9ef" opacity="0.125"/><circle cx="570" cy="290" r="6" fill="#bff8ff" opacity="0.16"/><circle cx="110" cy="90" r="10" fill="#53d9ef" opacity="0.195"/><circle cx="470" cy="410" r="5" fill="#53d9ef" opacity="0.09"/><circle cx="10" cy="210" r="9" fill="#bff8ff" opacity="0.125"/><circle cx="370" cy="10" r="4" fill="#53d9ef" opacity="0.16"/><circle cx="730" cy="330" r="8" fill="#53d9ef" opacity="0.195"/><circle cx="270" cy="130" r="3" fill="#bff8ff" opacity="0.09"/><circle cx="630" cy="450" r="7" fill="#53d9ef" opacity="0.125"/><circle cx="170" cy="250" r="2" fill="#53d9ef" opacity="0.16"/><circle cx="530" cy="50" r="6" fill="#bff8ff" opacity="0.195"/><circle cx="70" cy="370" r="10" fill="#53d9ef" opacity="0.09"/><circle cx="430" cy="170" r="5" fill="#53d9ef" opacity="0.125"/><path d="M-30 85 C 145 40, 270 121, 445 80 S 730 45, 835 97" fill="none" stroke="#425f79" stroke-width="10" opacity=".055"/><path d="M-30 133 C 145 88, 270 169, 445 128 S 730 93, 835 145" fill="none" stroke="#425f79" stroke-width="12" opacity=".055"/><path d="M-30 181 C 145 136, 270 217, 445 176 S 730 141, 835 193" fill="none" stroke="#425f79" stroke-width="14" opacity=".055"/><path d="M-30 229 C 145 184, 270 265, 445 224 S 730 189, 835 241" fill="none" stroke="#425f79" stroke-width="16" opacity=".055"/><path d="M-30 277 C 145 232, 270 313, 445 272 S 730 237, 835 289" fill="none" stroke="#425f79" stroke-width="18" opacity=".055"/><path d="M-30 325 C 145 280, 270 361, 445 320 S 730 285, 835 337" fill="none" stroke="#425f79" stroke-width="20" opacity=".055"/><path d="M-30 373 C 145 328, 270 409, 445 368 S 730 333, 835 385" fill="none" stroke="#425f79" stroke-width="22" opacity=".055"/><path d="M-30 421 C 145 376, 270 457, 445 416 S 730 381, 835 433" fill="none" stroke="#425f79" stroke-width="24" opacity=".055"/>
  <path d="195.23,177 145,206 94.77,177 94.77,119 145,90 195.23,119" fill="none" stroke="#bff8ff" stroke-width="4" opacity=".22"/><path d="721.19,211.73 653.95,247.91 583.73,217.9 563.41,144.29 608.3,82.51 684.59,79.08 734.83,136.59" fill="none" stroke="#9c8cff" stroke-width="5" opacity=".2"/><path d="M186 488 399 122 614 489" fill="none" stroke="#53d9ef" stroke-width="3" opacity=".14"/>
  <path d="M0 402c121-49 229-34 323-4 80 26 168-52 266-18 70 24 133 20 211-11v191H0Z" fill="#06101a"/><path d="M0 475c177-26 279 19 419-8 142-27 249-16 381 19v74H0Z" fill="#050b12"/>
  <g filter="url(#paint)"><path d="M74 408 C 214 337, 299 450, 401 306 S 584 158, 735 229" fill="none" stroke="url(#ember)" stroke-width="46" stroke-linecap="round" opacity=".88"/><path d="518.26,348.98 448.98,418.26 351.02,418.26 281.74,348.98 281.74,251.02 351.02,181.74 448.98,181.74 518.26,251.02" fill="none" stroke="#efffff" stroke-width="7" opacity=".5"/><path d="437,235.91 474,300 437,364.09 363,364.09 326,300 363,235.91" fill="url(#body)" opacity=".72"/><circle cx="400" cy="300" r="46" fill="url(#ember)"/></g>
  <rect width="800" height="560" fill="url(#grain)"/>
  <path d="M24 24h752v512H24Z" fill="none" stroke="#efffff" stroke-width="2" opacity=".055"/>
</svg>
