<svg xmlns="http://www.w3.org/2000/svg" viewBox="0 0 800 560" role="img" aria-labelledby="title desc">
  <title id="title">Dragon de la Caldera</title>
  <desc id="desc">ancient basalt dragon rising from crater; art direction: epic mural; collaborative atelier finish.</desc>
  <defs>
    <linearGradient id="bg" x1="0" y1="0" x2="1" y2="1"><stop stop-color="#090506"/><stop offset=".52" stop-color="#1b0b0d"/><stop offset="1" stop-color="#431415"/></linearGradient>
    <linearGradient id="body" x1="0" y1="0" x2="0" y2="1"><stop stop-color="#7a241b"/><stop offset=".56" stop-color="#2b1110"/><stop offset="1" stop-color="#090506"/></linearGradient>
    <radialGradient id="ember" cx=".5" cy=".45" r=".62"><stop stop-color="#fff0ba"/><stop offset=".34" stop-color="#ffb342"/><stop offset=".72" stop-color="#e35b22"/><stop offset="1" stop-color="#7a241b"/></radialGradient>
    <filter id="soft"><feGaussianBlur stdDeviation="18"/></filter>
    <filter id="paint"><feDropShadow dx="0" dy="16" stdDeviation="14" flood-color="#000" flood-opacity=".46"/><feDropShadow dx="0" dy="0" stdDeviation="7" flood-color="#ffb342" flood-opacity=".2"/></filter>
    <pattern id="grain" width="64" height="64" patternUnits="userSpaceOnUse"><path d="M0 13h64M0 37h64M19 0v64M43 0v64" stroke="#fff0ba" stroke-width="1" opacity=".025"/></pattern>
  </defs>
  <rect width="800" height="560" fill="url(#bg)"/>
  <circle cx="566" cy="205" r="190" fill="#e35b22" opacity=".13" filter="url(#soft)"/>
  <circle cx="288" cy="358" r="148" fill="#ffb342" opacity=".08" filter="url(#soft)"/>
  <circle cx="754" cy="22" r="3" fill="#ffb342" opacity="0.09"/><circle cx="746" cy="26" r="7" fill="#e35b22" opacity="0.125"/><circle cx="738" cy="30" r="2" fill="#e35b22" opacity="0.16"/><circle cx="730" cy="34" r="6" fill="#ffb342" opacity="0.195"/><circle cx="722" cy="38" r="10" fill="#e35b22" opacity="0.09"/><circle cx="714" cy="42" r="5" fill="#e35b22" opacity="0.125"/><circle cx="706" cy="46" r="9" fill="#ffb342" opacity="0.16"/><circle cx="698" cy="50" r="4" fill="#e35b22" opacity="0.195"/><circle cx="690" cy="54" r="8" fill="#e35b22" opacity="0.09"/><circle cx="682" cy="58" r="3" fill="#ffb342" opacity="0.125"/><circle cx="674" cy="62" r="7" fill="#e35b22" opacity="0.16"/><circle cx="666" cy="66" r="2" fill="#e35b22" opacity="0.195"/><circle cx="658" cy="70" r="6" fill="#ffb342" opacity="0.09"/><circle cx="650" cy="74" r="10" fill="#e35b22" opacity="0.125"/><circle cx="642" cy="78" r="5" fill="#e35b22" opacity="0.16"/><circle cx="634" cy="82" r="9" fill="#ffb342" opacity="0.195"/><circle cx="626" cy="86" r="4" fill="#e35b22" opacity="0.09"/><circle cx="618" cy="90" r="8" fill="#e35b22" opacity="0.125"/><path d="M-30 82 C 145 37, 270 118, 445 77 S 730 42, 835 94" fill="none" stroke="#4f3430" stroke-width="10" opacity=".055"/><path d="M-30 130 C 145 85, 270 166, 445 125 S 730 90, 835 142" fill="none" stroke="#4f3430" stroke-width="12" opacity=".055"/><path d="M-30 178 C 145 133, 270 214, 445 173 S 730 138, 835 190" fill="none" stroke="#4f3430" stroke-width="14" opacity=".055"/><path d="M-30 226 C 145 181, 270 262, 445 221 S 730 186, 835 238" fill="none" stroke="#4f3430" stroke-width="16" opacity=".055"/><path d="M-30 274 C 145 229, 270 310, 445 269 S 730 234, 835 286" fill="none" stroke="#4f3430" stroke-width="18" opacity=".055"/><path d="M-30 322 C 145 277, 270 358, 445 317 S 730 282, 835 334" fill="none" stroke="#4f3430" stroke-width="20" opacity=".055"/><path d="M-30 370 C 145 325, 270 406, 445 365 S 730 330, 835 382" fill="none" stroke="#4f3430" stroke-width="22" opacity=".055"/><path d="M-30 418 C 145 373, 270 454, 445 413 S 730 378, 835 430" fill="none" stroke="#4f3430" stroke-width="24" opacity=".055"/>
  <path d="M78 122 188 159 91 183Z" fill="#e35b22" opacity=".16"/><path d="M586 86 746 118 614 164Z" fill="#ffb342" opacity=".1"/><path d="M278 508 330 368 378 508Z" fill="#e35b22" opacity=".35"/>
  <path d="M0 392c96-45 191-64 285-31 87 31 156-47 255-20 98 26 165-31 260-3v222H0Z" fill="#10080a"/><path d="M0 456c146-28 262 26 409-1 134-25 244-10 391 28v77H0Z" fill="#090506"/>
  <g filter="url(#paint)"><path d="M92 357c98-85 201-88 299-43 92-118 196-141 292-83-72 3-119 29-158 79 81 15 139 58 189 123-109-54-203-47-278 1-78 51-196 71-344-77Z" fill="url(#body)" stroke="#b99754" stroke-width="8"/><path d="M334 349c25-117 88-185 190-207-32 66-34 133-3 203Z" fill="#7a241b" opacity=".62"/><path d="M370 365c57-62 132-82 228-49l-59 37 91 23-118 27c-34 58-88 80-164 69Z" fill="#2b1110" stroke="#e35b22" stroke-width="6"/><circle cx="535" cy="344" r="13" fill="#fff0ba"/><path d="M374 410c55 20 114 21 177 0" stroke="#ffb342" stroke-width="9" opacity=".55"/></g>
  <rect width="800" height="560" fill="url(#grain)"/>
  <path d="M24 24h752v512H24Z" fill="none" stroke="#fff0ba" stroke-width="2" opacity=".055"/>
</svg>
