<svg xmlns="http://www.w3.org/2000/svg" viewBox="0 0 800 560" role="img" aria-labelledby="title desc">
  <title id="title">Duelista del Prisma</title>
  <desc id="desc">mystic duelist splitting light with crystal blade; art direction: precise character painting; collaborative atelier finish.</desc>
  <defs>
    <linearGradient id="bg" x1="0" y1="0" x2="1" y2="1"><stop stop-color="#050b12"/><stop offset=".52" stop-color="#071827"/><stop offset="1" stop-color="#10335b"/></linearGradient>
    <linearGradient id="body" x1="0" y1="0" x2="0" y2="1"><stop stop-color="#2769ad"/><stop offset=".56" stop-color="#102744"/><stop offset="1" stop-color="#050b12"/></linearGradient>
    <radialGradient id="ember" cx=".5" cy=".45" r=".62"><stop stop-color="#efffff"/><stop offset=".34" stop-color="#bff8ff"/><stop offset=".72" stop-color="#53d9ef"/><stop offset="1" stop-color="#2769ad"/></radialGradient>
    <filter id="soft"><feGaussianBlur stdDeviation="18"/></filter>
    <filter id="paint"><feDropShadow dx="0" dy="16" stdDeviation="14" flood-color="#000" flood-opacity=".46"/><feDropShadow dx="0" dy="0" stdDeviation="7" flood-color="#bff8ff" flood-opacity=".2"/></filter>
    <pattern id="grain" width="64" height="64" patternUnits="userSpaceOnUse"><path d="M0 13h64M0 37h64M19 0v64M43 0v64" stroke="#efffff" stroke-width="1" opacity=".025"/></pattern>
  </defs>
  <rect width="800" height="560" fill="url(#bg)"/>
  <circle cx="268" cy="180" r="190" fill="#53d9ef" opacity=".13" filter="url(#soft)"/>
  <circle cx="540" cy="318" r="148" fill="#bff8ff" opacity=".08" filter="url(#soft)"/>
  <circle cx="374" cy="302" r="10" fill="#bff8ff" opacity="0.09"/><circle cx="546" cy="226" r="5" fill="#53d9ef" opacity="0.125"/><circle cx="718" cy="150" r="9" fill="#53d9ef" opacity="0.16"/><circle cx="70" cy="74" r="4" fill="#bff8ff" opacity="0.195"/><circle cx="242" cy="518" r="8" fill="#53d9ef" opacity="0.09"/><circle cx="414" cy="442" r="3" fill="#53d9ef" opacity="0.125"/><circle cx="586" cy="366" r="7" fill="#bff8ff" opacity="0.16"/><circle cx="758" cy="290" r="2" fill="#53d9ef" opacity="0.195"/><circle cx="110" cy="214" r="6" fill="#53d9ef" opacity="0.09"/><circle cx="282" cy="138" r="10" fill="#bff8ff" opacity="0.125"/><circle cx="454" cy="62" r="5" fill="#53d9ef" opacity="0.16"/><circle cx="626" cy="506" r="9" fill="#53d9ef" opacity="0.195"/><circle cx="798" cy="430" r="4" fill="#bff8ff" opacity="0.09"/><circle cx="150" cy="354" r="8" fill="#53d9ef" opacity="0.125"/><circle cx="322" cy="278" r="3" fill="#53d9ef" opacity="0.16"/><circle cx="494" cy="202" r="7" fill="#bff8ff" opacity="0.195"/><circle cx="666" cy="126" r="2" fill="#53d9ef" opacity="0.09"/><circle cx="18" cy="50" r="6" fill="#53d9ef" opacity="0.125"/><path d="M-30 89 C 145 44, 270 125, 445 84 S 730 49, 835 101" fill="none" stroke="#425f79" stroke-width="10" opacity=".055"/><path d="M-30 137 C 145 92, 270 173, 445 132 S 730 97, 835 149" fill="none" stroke="#425f79" stroke-width="12" opacity=".055"/><path d="M-30 185 C 145 140, 270 221, 445 180 S 730 145, 835 197" fill="none" stroke="#425f79" stroke-width="14" opacity=".055"/><path d="M-30 233 C 145 188, 270 269, 445 228 S 730 193, 835 245" fill="none" stroke="#425f79" stroke-width="16" opacity=".055"/><path d="M-30 281 C 145 236, 270 317, 445 276 S 730 241, 835 293" fill="none" stroke="#425f79" stroke-width="18" opacity=".055"/><path d="M-30 329 C 145 284, 270 365, 445 324 S 730 289, 835 341" fill="none" stroke="#425f79" stroke-width="20" opacity=".055"/><path d="M-30 377 C 145 332, 270 413, 445 372 S 730 337, 835 389" fill="none" stroke="#425f79" stroke-width="22" opacity=".055"/><path d="M-30 425 C 145 380, 270 461, 445 420 S 730 385, 835 437" fill="none" stroke="#425f79" stroke-width="24" opacity=".055"/>
  <path d="195.23,177 145,206 94.77,177 94.77,119 145,90 195.23,119" fill="none" stroke="#bff8ff" stroke-width="4" opacity=".22"/><path d="721.19,211.73 653.95,247.91 583.73,217.9 563.41,144.29 608.3,82.51 684.59,79.08 734.83,136.59" fill="none" stroke="#9c8cff" stroke-width="5" opacity=".2"/><path d="M186 488 399 122 614 489" fill="none" stroke="#53d9ef" stroke-width="3" opacity=".14"/>
  <path d="M0 402c121-49 229-34 323-4 80 26 168-52 266-18 70 24 133 20 211-11v191H0Z" fill="#06101a"/><path d="M0 475c177-26 279 19 419-8 142-27 249-16 381 19v74H0Z" fill="#050b12"/>
  <g filter="url(#paint)"><path d="M400 128c40 0 68 31 64 72-4 38-31 66-64 66s-60-28-64-66c-4-41 24-72 64-72Z" fill="#2769ad" stroke="#9c8cff" stroke-width="6"/><path d="M295 500c10-113 43-199 105-258 68 62 103 147 112 258Z" fill="url(#body)" stroke="#9c8cff" stroke-width="8"/><path d="M302 307 169 402l-43-23 158-134Z" fill="#102744" stroke="#53d9ef" stroke-width="5"/><path d="M499 307 641 401l43-24-166-132Z" fill="#102744" stroke="#53d9ef" stroke-width="5"/><path d="M354 276c31 36 60 36 91 0" stroke="#efffff" stroke-width="7" opacity=".6"/><path d="M350 318c78-32 133-31 181 3" fill="none" stroke="#bff8ff" stroke-width="10" opacity=".75"/></g>
  <rect width="800" height="560" fill="url(#grain)"/>
  <path d="M24 24h752v512H24Z" fill="none" stroke="#efffff" stroke-width="2" opacity=".055"/>
</svg>
