<svg xmlns="http://www.w3.org/2000/svg" viewBox="0 0 800 560" role="img" aria-labelledby="title desc">
  <title id="title">Eco Cronomante</title>
  <desc id="desc">chronomancer repeated through time exposures; art direction: symbolist arcane portrait; collaborative atelier finish.</desc>
  <defs>
    <linearGradient id="bg" x1="0" y1="0" x2="1" y2="1"><stop stop-color="#050b12"/><stop offset=".52" stop-color="#071827"/><stop offset="1" stop-color="#10335b"/></linearGradient>
    <linearGradient id="body" x1="0" y1="0" x2="0" y2="1"><stop stop-color="#2769ad"/><stop offset=".56" stop-color="#102744"/><stop offset="1" stop-color="#050b12"/></linearGradient>
    <radialGradient id="ember" cx=".5" cy=".45" r=".62"><stop stop-color="#efffff"/><stop offset=".34" stop-color="#bff8ff"/><stop offset=".72" stop-color="#53d9ef"/><stop offset="1" stop-color="#2769ad"/></radialGradient>
    <filter id="soft"><feGaussianBlur stdDeviation="18"/></filter>
    <filter id="paint"><feDropShadow dx="0" dy="16" stdDeviation="14" flood-color="#000" flood-opacity=".46"/><feDropShadow dx="0" dy="0" stdDeviation="7" flood-color="#bff8ff" flood-opacity=".2"/></filter>
    <pattern id="grain" width="64" height="64" patternUnits="userSpaceOnUse"><path d="M0 13h64M0 37h64M19 0v64M43 0v64" stroke="#efffff" stroke-width="1" opacity=".025"/></pattern>
  </defs>
  <rect width="800" height="560" fill="url(#bg)"/>
  <circle cx="268" cy="180" r="190" fill="#53d9ef" opacity=".13" filter="url(#soft)"/>
  <circle cx="540" cy="318" r="148" fill="#bff8ff" opacity=".08" filter="url(#soft)"/>
  <circle cx="756" cy="108" r="5" fill="#bff8ff" opacity="0.09"/><circle cx="514" cy="314" r="9" fill="#53d9ef" opacity="0.125"/><circle cx="272" cy="520" r="4" fill="#53d9ef" opacity="0.16"/><circle cx="30" cy="206" r="8" fill="#bff8ff" opacity="0.195"/><circle cx="608" cy="412" r="3" fill="#53d9ef" opacity="0.09"/><circle cx="366" cy="98" r="7" fill="#53d9ef" opacity="0.125"/><circle cx="124" cy="304" r="2" fill="#bff8ff" opacity="0.16"/><circle cx="702" cy="510" r="6" fill="#53d9ef" opacity="0.195"/><circle cx="460" cy="196" r="10" fill="#53d9ef" opacity="0.09"/><circle cx="218" cy="402" r="5" fill="#bff8ff" opacity="0.125"/><circle cx="796" cy="88" r="9" fill="#53d9ef" opacity="0.16"/><circle cx="554" cy="294" r="4" fill="#53d9ef" opacity="0.195"/><circle cx="312" cy="500" r="8" fill="#bff8ff" opacity="0.09"/><circle cx="70" cy="186" r="3" fill="#53d9ef" opacity="0.125"/><circle cx="648" cy="392" r="7" fill="#53d9ef" opacity="0.16"/><circle cx="406" cy="78" r="2" fill="#bff8ff" opacity="0.195"/><circle cx="164" cy="284" r="6" fill="#53d9ef" opacity="0.09"/><circle cx="742" cy="490" r="10" fill="#53d9ef" opacity="0.125"/><path d="M-30 86 C 145 41, 270 122, 445 81 S 730 46, 835 98" fill="none" stroke="#425f79" stroke-width="10" opacity=".055"/><path d="M-30 134 C 145 89, 270 170, 445 129 S 730 94, 835 146" fill="none" stroke="#425f79" stroke-width="12" opacity=".055"/><path d="M-30 182 C 145 137, 270 218, 445 177 S 730 142, 835 194" fill="none" stroke="#425f79" stroke-width="14" opacity=".055"/><path d="M-30 230 C 145 185, 270 266, 445 225 S 730 190, 835 242" fill="none" stroke="#425f79" stroke-width="16" opacity=".055"/><path d="M-30 278 C 145 233, 270 314, 445 273 S 730 238, 835 290" fill="none" stroke="#425f79" stroke-width="18" opacity=".055"/><path d="M-30 326 C 145 281, 270 362, 445 321 S 730 286, 835 338" fill="none" stroke="#425f79" stroke-width="20" opacity=".055"/><path d="M-30 374 C 145 329, 270 410, 445 369 S 730 334, 835 386" fill="none" stroke="#425f79" stroke-width="22" opacity=".055"/><path d="M-30 422 C 145 377, 270 458, 445 417 S 730 382, 835 434" fill="none" stroke="#425f79" stroke-width="24" opacity=".055"/>
  <path d="195.23,177 145,206 94.77,177 94.77,119 145,90 195.23,119" fill="none" stroke="#bff8ff" stroke-width="4" opacity=".22"/><path d="721.19,211.73 653.95,247.91 583.73,217.9 563.41,144.29 608.3,82.51 684.59,79.08 734.83,136.59" fill="none" stroke="#9c8cff" stroke-width="5" opacity=".2"/><path d="M186 488 399 122 614 489" fill="none" stroke="#53d9ef" stroke-width="3" opacity=".14"/>
  <path d="M0 402c121-49 229-34 323-4 80 26 168-52 266-18 70 24 133 20 211-11v191H0Z" fill="#06101a"/><path d="M0 475c177-26 279 19 419-8 142-27 249-16 381 19v74H0Z" fill="#050b12"/>
  <g filter="url(#paint)"><path d="M400 128c40 0 68 31 64 72-4 38-31 66-64 66s-60-28-64-66c-4-41 24-72 64-72Z" fill="#2769ad" stroke="#9c8cff" stroke-width="6"/><path d="M295 500c10-113 43-199 105-258 68 62 103 147 112 258Z" fill="url(#body)" stroke="#9c8cff" stroke-width="8"/><path d="M302 307 169 402l-43-23 158-134Z" fill="#102744" stroke="#53d9ef" stroke-width="5"/><path d="M499 307 641 401l43-24-166-132Z" fill="#102744" stroke="#53d9ef" stroke-width="5"/><path d="M354 276c31 36 60 36 91 0" stroke="#efffff" stroke-width="7" opacity=".6"/><path d="M350 318c78-32 133-31 181 3" fill="none" stroke="#bff8ff" stroke-width="10" opacity=".75"/></g>
  <rect width="800" height="560" fill="url(#grain)"/>
  <path d="M24 24h752v512H24Z" fill="none" stroke="#efffff" stroke-width="2" opacity=".055"/>
</svg>
