<svg xmlns="http://www.w3.org/2000/svg" viewBox="0 0 800 560" role="img" aria-labelledby="title desc">
  <title id="title">Fenix de Pavesa</title>
  <desc id="desc">phoenix born from black ash; art direction: luminous gouache; collaborative atelier finish.</desc>
  <defs>
    <linearGradient id="bg" x1="0" y1="0" x2="1" y2="1"><stop stop-color="#090506"/><stop offset=".52" stop-color="#1b0b0d"/><stop offset="1" stop-color="#431415"/></linearGradient>
    <linearGradient id="body" x1="0" y1="0" x2="0" y2="1"><stop stop-color="#7a241b"/><stop offset=".56" stop-color="#2b1110"/><stop offset="1" stop-color="#090506"/></linearGradient>
    <radialGradient id="ember" cx=".5" cy=".45" r=".62"><stop stop-color="#fff0ba"/><stop offset=".34" stop-color="#ffb342"/><stop offset=".72" stop-color="#e35b22"/><stop offset="1" stop-color="#7a241b"/></radialGradient>
    <filter id="soft"><feGaussianBlur stdDeviation="18"/></filter>
    <filter id="paint"><feDropShadow dx="0" dy="16" stdDeviation="14" flood-color="#000" flood-opacity=".46"/><feDropShadow dx="0" dy="0" stdDeviation="7" flood-color="#ffb342" flood-opacity=".2"/></filter>
    <pattern id="grain" width="64" height="64" patternUnits="userSpaceOnUse"><path d="M0 13h64M0 37h64M19 0v64M43 0v64" stroke="#fff0ba" stroke-width="1" opacity=".025"/></pattern>
  </defs>
  <rect width="800" height="560" fill="url(#bg)"/>
  <circle cx="566" cy="205" r="190" fill="#e35b22" opacity=".13" filter="url(#soft)"/>
  <circle cx="288" cy="358" r="148" fill="#ffb342" opacity=".08" filter="url(#soft)"/>
  <circle cx="227" cy="41" r="10" fill="#ffb342" opacity="0.09"/><circle cx="378" cy="398" r="5" fill="#e35b22" opacity="0.125"/><circle cx="529" cy="235" r="9" fill="#e35b22" opacity="0.16"/><circle cx="680" cy="72" r="4" fill="#ffb342" opacity="0.195"/><circle cx="11" cy="429" r="8" fill="#e35b22" opacity="0.09"/><circle cx="162" cy="266" r="3" fill="#e35b22" opacity="0.125"/><circle cx="313" cy="103" r="7" fill="#ffb342" opacity="0.16"/><circle cx="464" cy="460" r="2" fill="#e35b22" opacity="0.195"/><circle cx="615" cy="297" r="6" fill="#e35b22" opacity="0.09"/><circle cx="766" cy="134" r="10" fill="#ffb342" opacity="0.125"/><circle cx="97" cy="491" r="5" fill="#e35b22" opacity="0.16"/><circle cx="248" cy="328" r="9" fill="#e35b22" opacity="0.195"/><circle cx="399" cy="165" r="4" fill="#ffb342" opacity="0.09"/><circle cx="550" cy="522" r="8" fill="#e35b22" opacity="0.125"/><circle cx="701" cy="359" r="3" fill="#e35b22" opacity="0.16"/><circle cx="32" cy="196" r="7" fill="#ffb342" opacity="0.195"/><circle cx="183" cy="33" r="2" fill="#e35b22" opacity="0.09"/><circle cx="334" cy="390" r="6" fill="#e35b22" opacity="0.125"/><path d="M-30 96 C 145 51, 270 132, 445 91 S 730 56, 835 108" fill="none" stroke="#4f3430" stroke-width="10" opacity=".055"/><path d="M-30 144 C 145 99, 270 180, 445 139 S 730 104, 835 156" fill="none" stroke="#4f3430" stroke-width="12" opacity=".055"/><path d="M-30 192 C 145 147, 270 228, 445 187 S 730 152, 835 204" fill="none" stroke="#4f3430" stroke-width="14" opacity=".055"/><path d="M-30 240 C 145 195, 270 276, 445 235 S 730 200, 835 252" fill="none" stroke="#4f3430" stroke-width="16" opacity=".055"/><path d="M-30 288 C 145 243, 270 324, 445 283 S 730 248, 835 300" fill="none" stroke="#4f3430" stroke-width="18" opacity=".055"/><path d="M-30 336 C 145 291, 270 372, 445 331 S 730 296, 835 348" fill="none" stroke="#4f3430" stroke-width="20" opacity=".055"/><path d="M-30 384 C 145 339, 270 420, 445 379 S 730 344, 835 396" fill="none" stroke="#4f3430" stroke-width="22" opacity=".055"/><path d="M-30 432 C 145 387, 270 468, 445 427 S 730 392, 835 444" fill="none" stroke="#4f3430" stroke-width="24" opacity=".055"/>
  <path d="M78 122 188 159 91 183Z" fill="#e35b22" opacity=".16"/><path d="M586 86 746 118 614 164Z" fill="#ffb342" opacity=".1"/><path d="M278 508 330 368 378 508Z" fill="#e35b22" opacity=".35"/>
  <path d="M0 392c96-45 191-64 285-31 87 31 156-47 255-20 98 26 165-31 260-3v222H0Z" fill="#10080a"/><path d="M0 456c146-28 262 26 409-1 134-25 244-10 391 28v77H0Z" fill="#090506"/>
  <g filter="url(#paint)"><path d="M397 376c-128-67-213-59-317 20 69-135 183-203 323-90 135-113 251-45 322 90-110-78-196-86-328-20Z" fill="url(#ember)" opacity=".92"/><path d="M394 255c44 42 72 83 74 143-34 44-90 45-132 0 4-61 24-105 58-143Z" fill="url(#body)" stroke="#fff0ba" stroke-width="5"/><path d="M378 249c21-50 12-91-27-133 64 26 98 67 105 123Z" fill="#ffb342"/><circle cx="421" cy="318" r="8" fill="#fff0ba"/></g>
  <rect width="800" height="560" fill="url(#grain)"/>
  <path d="M24 24h752v512H24Z" fill="none" stroke="#fff0ba" stroke-width="2" opacity=".055"/>
</svg>
