<svg xmlns="http://www.w3.org/2000/svg" viewBox="0 0 800 560" role="img" aria-labelledby="title desc">
  <title id="title">Forja Carmesi</title>
  <desc id="desc">ritual forge with floating red weapons; art direction: industrial fantasy painting; collaborative atelier finish.</desc>
  <defs>
    <linearGradient id="bg" x1="0" y1="0" x2="1" y2="1"><stop stop-color="#090506"/><stop offset=".52" stop-color="#1b0b0d"/><stop offset="1" stop-color="#431415"/></linearGradient>
    <linearGradient id="body" x1="0" y1="0" x2="0" y2="1"><stop stop-color="#7a241b"/><stop offset=".56" stop-color="#2b1110"/><stop offset="1" stop-color="#090506"/></linearGradient>
    <radialGradient id="ember" cx=".5" cy=".45" r=".62"><stop stop-color="#fff0ba"/><stop offset=".34" stop-color="#ffb342"/><stop offset=".72" stop-color="#e35b22"/><stop offset="1" stop-color="#7a241b"/></radialGradient>
    <filter id="soft"><feGaussianBlur stdDeviation="18"/></filter>
    <filter id="paint"><feDropShadow dx="0" dy="16" stdDeviation="14" flood-color="#000" flood-opacity=".46"/><feDropShadow dx="0" dy="0" stdDeviation="7" flood-color="#ffb342" flood-opacity=".2"/></filter>
    <pattern id="grain" width="64" height="64" patternUnits="userSpaceOnUse"><path d="M0 13h64M0 37h64M19 0v64M43 0v64" stroke="#fff0ba" stroke-width="1" opacity=".025"/></pattern>
  </defs>
  <rect width="800" height="560" fill="url(#bg)"/>
  <circle cx="566" cy="205" r="190" fill="#e35b22" opacity=".13" filter="url(#soft)"/>
  <circle cx="288" cy="358" r="148" fill="#ffb342" opacity=".08" filter="url(#soft)"/>
  <circle cx="275" cy="85" r="3" fill="#ffb342" opacity="0.09"/><circle cx="550" cy="110" r="7" fill="#e35b22" opacity="0.125"/><circle cx="5" cy="135" r="2" fill="#e35b22" opacity="0.16"/><circle cx="280" cy="160" r="6" fill="#ffb342" opacity="0.195"/><circle cx="555" cy="185" r="10" fill="#e35b22" opacity="0.09"/><circle cx="10" cy="210" r="5" fill="#e35b22" opacity="0.125"/><circle cx="285" cy="235" r="9" fill="#ffb342" opacity="0.16"/><circle cx="560" cy="260" r="4" fill="#e35b22" opacity="0.195"/><circle cx="15" cy="285" r="8" fill="#e35b22" opacity="0.09"/><circle cx="290" cy="310" r="3" fill="#ffb342" opacity="0.125"/><circle cx="565" cy="335" r="7" fill="#e35b22" opacity="0.16"/><circle cx="20" cy="360" r="2" fill="#e35b22" opacity="0.195"/><circle cx="295" cy="385" r="6" fill="#ffb342" opacity="0.09"/><circle cx="570" cy="410" r="10" fill="#e35b22" opacity="0.125"/><circle cx="25" cy="435" r="5" fill="#e35b22" opacity="0.16"/><circle cx="300" cy="460" r="9" fill="#ffb342" opacity="0.195"/><circle cx="575" cy="485" r="4" fill="#e35b22" opacity="0.09"/><circle cx="30" cy="510" r="8" fill="#e35b22" opacity="0.125"/><path d="M-30 86 C 145 41, 270 122, 445 81 S 730 46, 835 98" fill="none" stroke="#4f3430" stroke-width="10" opacity=".055"/><path d="M-30 134 C 145 89, 270 170, 445 129 S 730 94, 835 146" fill="none" stroke="#4f3430" stroke-width="12" opacity=".055"/><path d="M-30 182 C 145 137, 270 218, 445 177 S 730 142, 835 194" fill="none" stroke="#4f3430" stroke-width="14" opacity=".055"/><path d="M-30 230 C 145 185, 270 266, 445 225 S 730 190, 835 242" fill="none" stroke="#4f3430" stroke-width="16" opacity=".055"/><path d="M-30 278 C 145 233, 270 314, 445 273 S 730 238, 835 290" fill="none" stroke="#4f3430" stroke-width="18" opacity=".055"/><path d="M-30 326 C 145 281, 270 362, 445 321 S 730 286, 835 338" fill="none" stroke="#4f3430" stroke-width="20" opacity=".055"/><path d="M-30 374 C 145 329, 270 410, 445 369 S 730 334, 835 386" fill="none" stroke="#4f3430" stroke-width="22" opacity=".055"/><path d="M-30 422 C 145 377, 270 458, 445 417 S 730 382, 835 434" fill="none" stroke="#4f3430" stroke-width="24" opacity=".055"/>
  <path d="M78 122 188 159 91 183Z" fill="#e35b22" opacity=".16"/><path d="M586 86 746 118 614 164Z" fill="#ffb342" opacity=".1"/><path d="M278 508 330 368 378 508Z" fill="#e35b22" opacity=".35"/>
  <path d="M0 392c96-45 191-64 285-31 87 31 156-47 255-20 98 26 165-31 260-3v222H0Z" fill="#10080a"/><path d="M0 456c146-28 262 26 409-1 134-25 244-10 391 28v77H0Z" fill="#090506"/>
  <g filter="url(#paint)"><path d="M203 504 257 220 400 112 546 220 603 504Z" fill="url(#body)" stroke="#b99754" stroke-width="8"/><path d="M311 504 336 297 400 242 466 297 491 504Z" fill="#090506"/><path d="400,138 472.28,190.51 444.67,275.49 355.33,275.49 327.72,190.51" fill="url(#ember)" opacity=".8"/><path d="M255 247h290M229 358h342" stroke="#e35b22" stroke-width="8" opacity=".45"/><circle cx="400" cy="396" r="45" fill="#ffb342" opacity=".22"/></g>
  <rect width="800" height="560" fill="url(#grain)"/>
  <path d="M24 24h752v512H24Z" fill="none" stroke="#fff0ba" stroke-width="2" opacity=".055"/>
</svg>
