<svg xmlns="http://www.w3.org/2000/svg" viewBox="0 0 800 560" role="img" aria-labelledby="title desc">
  <title id="title">Fuente de Furia</title>
  <desc id="desc">monumental magma well under a mountain; art direction: oil monumentalism; collaborative atelier finish.</desc>
  <defs>
    <linearGradient id="bg" x1="0" y1="0" x2="1" y2="1"><stop stop-color="#090506"/><stop offset=".52" stop-color="#1b0b0d"/><stop offset="1" stop-color="#431415"/></linearGradient>
    <linearGradient id="body" x1="0" y1="0" x2="0" y2="1"><stop stop-color="#7a241b"/><stop offset=".56" stop-color="#2b1110"/><stop offset="1" stop-color="#090506"/></linearGradient>
    <radialGradient id="ember" cx=".5" cy=".45" r=".62"><stop stop-color="#fff0ba"/><stop offset=".34" stop-color="#ffb342"/><stop offset=".72" stop-color="#e35b22"/><stop offset="1" stop-color="#7a241b"/></radialGradient>
    <filter id="soft"><feGaussianBlur stdDeviation="18"/></filter>
    <filter id="paint"><feDropShadow dx="0" dy="16" stdDeviation="14" flood-color="#000" flood-opacity=".46"/><feDropShadow dx="0" dy="0" stdDeviation="7" flood-color="#ffb342" flood-opacity=".2"/></filter>
    <pattern id="grain" width="64" height="64" patternUnits="userSpaceOnUse"><path d="M0 13h64M0 37h64M19 0v64M43 0v64" stroke="#fff0ba" stroke-width="1" opacity=".025"/></pattern>
  </defs>
  <rect width="800" height="560" fill="url(#bg)"/>
  <circle cx="566" cy="205" r="190" fill="#e35b22" opacity=".13" filter="url(#soft)"/>
  <circle cx="288" cy="358" r="148" fill="#ffb342" opacity=".08" filter="url(#soft)"/>
  <circle cx="443" cy="269" r="5" fill="#ffb342" opacity="0.09"/><circle cx="742" cy="182" r="9" fill="#e35b22" opacity="0.125"/><circle cx="221" cy="95" r="4" fill="#e35b22" opacity="0.16"/><circle cx="520" cy="528" r="8" fill="#ffb342" opacity="0.195"/><circle cx="-1" cy="441" r="3" fill="#e35b22" opacity="0.09"/><circle cx="298" cy="354" r="7" fill="#e35b22" opacity="0.125"/><circle cx="597" cy="267" r="2" fill="#ffb342" opacity="0.16"/><circle cx="76" cy="180" r="6" fill="#e35b22" opacity="0.195"/><circle cx="375" cy="93" r="10" fill="#e35b22" opacity="0.09"/><circle cx="674" cy="526" r="5" fill="#ffb342" opacity="0.125"/><circle cx="153" cy="439" r="9" fill="#e35b22" opacity="0.16"/><circle cx="452" cy="352" r="4" fill="#e35b22" opacity="0.195"/><circle cx="751" cy="265" r="8" fill="#ffb342" opacity="0.09"/><circle cx="230" cy="178" r="3" fill="#e35b22" opacity="0.125"/><circle cx="529" cy="91" r="7" fill="#e35b22" opacity="0.16"/><circle cx="8" cy="524" r="2" fill="#ffb342" opacity="0.195"/><circle cx="307" cy="437" r="6" fill="#e35b22" opacity="0.09"/><circle cx="606" cy="350" r="10" fill="#e35b22" opacity="0.125"/><path d="M-30 83 C 145 38, 270 119, 445 78 S 730 43, 835 95" fill="none" stroke="#4f3430" stroke-width="10" opacity=".055"/><path d="M-30 131 C 145 86, 270 167, 445 126 S 730 91, 835 143" fill="none" stroke="#4f3430" stroke-width="12" opacity=".055"/><path d="M-30 179 C 145 134, 270 215, 445 174 S 730 139, 835 191" fill="none" stroke="#4f3430" stroke-width="14" opacity=".055"/><path d="M-30 227 C 145 182, 270 263, 445 222 S 730 187, 835 239" fill="none" stroke="#4f3430" stroke-width="16" opacity=".055"/><path d="M-30 275 C 145 230, 270 311, 445 270 S 730 235, 835 287" fill="none" stroke="#4f3430" stroke-width="18" opacity=".055"/><path d="M-30 323 C 145 278, 270 359, 445 318 S 730 283, 835 335" fill="none" stroke="#4f3430" stroke-width="20" opacity=".055"/><path d="M-30 371 C 145 326, 270 407, 445 366 S 730 331, 835 383" fill="none" stroke="#4f3430" stroke-width="22" opacity=".055"/><path d="M-30 419 C 145 374, 270 455, 445 414 S 730 379, 835 431" fill="none" stroke="#4f3430" stroke-width="24" opacity=".055"/>
  <path d="M78 122 188 159 91 183Z" fill="#e35b22" opacity=".16"/><path d="M586 86 746 118 614 164Z" fill="#ffb342" opacity=".1"/><path d="M278 508 330 368 378 508Z" fill="#e35b22" opacity=".35"/>
  <path d="M0 392c96-45 191-64 285-31 87 31 156-47 255-20 98 26 165-31 260-3v222H0Z" fill="#10080a"/><path d="M0 456c146-28 262 26 409-1 134-25 244-10 391 28v77H0Z" fill="#090506"/>
  <g filter="url(#paint)"><path d="M88 430 C 201 320, 230 194, 365 262 S 559 210, 716 102" fill="none" stroke="url(#ember)" stroke-width="46" stroke-linecap="round" opacity=".88"/><path d="518.26,348.98 389.96,427.61 275.54,329.88 333.12,190.86 483.13,202.67" fill="none" stroke="#fff0ba" stroke-width="7" opacity=".5"/><path d="437,235.91 437,364.09 326,300" fill="url(#body)" opacity=".72"/><circle cx="400" cy="300" r="46" fill="url(#ember)"/></g>
  <rect width="800" height="560" fill="url(#grain)"/>
  <path d="M24 24h752v512H24Z" fill="none" stroke="#fff0ba" stroke-width="2" opacity=".055"/>
</svg>
