<svg xmlns="http://www.w3.org/2000/svg" viewBox="0 0 800 560" role="img" aria-labelledby="title desc">
  <title id="title">Lancera de Magma</title>
  <desc id="desc">magma lancer on a narrow bridge; art direction: dynamic character illustration; collaborative atelier finish.</desc>
  <defs>
    <linearGradient id="bg" x1="0" y1="0" x2="1" y2="1"><stop stop-color="#090506"/><stop offset=".52" stop-color="#1b0b0d"/><stop offset="1" stop-color="#431415"/></linearGradient>
    <linearGradient id="body" x1="0" y1="0" x2="0" y2="1"><stop stop-color="#7a241b"/><stop offset=".56" stop-color="#2b1110"/><stop offset="1" stop-color="#090506"/></linearGradient>
    <radialGradient id="ember" cx=".5" cy=".45" r=".62"><stop stop-color="#fff0ba"/><stop offset=".34" stop-color="#ffb342"/><stop offset=".72" stop-color="#e35b22"/><stop offset="1" stop-color="#7a241b"/></radialGradient>
    <filter id="soft"><feGaussianBlur stdDeviation="18"/></filter>
    <filter id="paint"><feDropShadow dx="0" dy="16" stdDeviation="14" flood-color="#000" flood-opacity=".46"/><feDropShadow dx="0" dy="0" stdDeviation="7" flood-color="#ffb342" flood-opacity=".2"/></filter>
    <pattern id="grain" width="64" height="64" patternUnits="userSpaceOnUse"><path d="M0 13h64M0 37h64M19 0v64M43 0v64" stroke="#fff0ba" stroke-width="1" opacity=".025"/></pattern>
  </defs>
  <rect width="800" height="560" fill="url(#bg)"/>
  <circle cx="566" cy="205" r="190" fill="#e35b22" opacity=".13" filter="url(#soft)"/>
  <circle cx="288" cy="358" r="148" fill="#ffb342" opacity=".08" filter="url(#soft)"/>
  <circle cx="144" cy="512" r="10" fill="#ffb342" opacity="0.09"/><circle cx="166" cy="506" r="5" fill="#e35b22" opacity="0.125"/><circle cx="188" cy="500" r="9" fill="#e35b22" opacity="0.16"/><circle cx="210" cy="494" r="4" fill="#ffb342" opacity="0.195"/><circle cx="232" cy="488" r="8" fill="#e35b22" opacity="0.09"/><circle cx="254" cy="482" r="3" fill="#e35b22" opacity="0.125"/><circle cx="276" cy="476" r="7" fill="#ffb342" opacity="0.16"/><circle cx="298" cy="470" r="2" fill="#e35b22" opacity="0.195"/><circle cx="320" cy="464" r="6" fill="#e35b22" opacity="0.09"/><circle cx="342" cy="458" r="10" fill="#ffb342" opacity="0.125"/><circle cx="364" cy="452" r="5" fill="#e35b22" opacity="0.16"/><circle cx="386" cy="446" r="9" fill="#e35b22" opacity="0.195"/><circle cx="408" cy="440" r="4" fill="#ffb342" opacity="0.09"/><circle cx="430" cy="434" r="8" fill="#e35b22" opacity="0.125"/><circle cx="452" cy="428" r="3" fill="#e35b22" opacity="0.16"/><circle cx="474" cy="422" r="7" fill="#ffb342" opacity="0.195"/><circle cx="496" cy="416" r="2" fill="#e35b22" opacity="0.09"/><circle cx="518" cy="410" r="6" fill="#e35b22" opacity="0.125"/><path d="M-30 91 C 145 46, 270 127, 445 86 S 730 51, 835 103" fill="none" stroke="#4f3430" stroke-width="10" opacity=".055"/><path d="M-30 139 C 145 94, 270 175, 445 134 S 730 99, 835 151" fill="none" stroke="#4f3430" stroke-width="12" opacity=".055"/><path d="M-30 187 C 145 142, 270 223, 445 182 S 730 147, 835 199" fill="none" stroke="#4f3430" stroke-width="14" opacity=".055"/><path d="M-30 235 C 145 190, 270 271, 445 230 S 730 195, 835 247" fill="none" stroke="#4f3430" stroke-width="16" opacity=".055"/><path d="M-30 283 C 145 238, 270 319, 445 278 S 730 243, 835 295" fill="none" stroke="#4f3430" stroke-width="18" opacity=".055"/><path d="M-30 331 C 145 286, 270 367, 445 326 S 730 291, 835 343" fill="none" stroke="#4f3430" stroke-width="20" opacity=".055"/><path d="M-30 379 C 145 334, 270 415, 445 374 S 730 339, 835 391" fill="none" stroke="#4f3430" stroke-width="22" opacity=".055"/><path d="M-30 427 C 145 382, 270 463, 445 422 S 730 387, 835 439" fill="none" stroke="#4f3430" stroke-width="24" opacity=".055"/>
  <path d="M78 122 188 159 91 183Z" fill="#e35b22" opacity=".16"/><path d="M586 86 746 118 614 164Z" fill="#ffb342" opacity=".1"/><path d="M278 508 330 368 378 508Z" fill="#e35b22" opacity=".35"/>
  <path d="M0 392c96-45 191-64 285-31 87 31 156-47 255-20 98 26 165-31 260-3v222H0Z" fill="#10080a"/><path d="M0 456c146-28 262 26 409-1 134-25 244-10 391 28v77H0Z" fill="#090506"/>
  <g filter="url(#paint)"><path d="M400 128c40 0 68 31 64 72-4 38-31 66-64 66s-60-28-64-66c-4-41 24-72 64-72Z" fill="#7a241b" stroke="#b99754" stroke-width="6"/><path d="M295 500c10-113 43-199 105-258 68 62 103 147 112 258Z" fill="url(#body)" stroke="#b99754" stroke-width="8"/><path d="M302 307 169 402l-43-23 158-134Z" fill="#2b1110" stroke="#e35b22" stroke-width="5"/><path d="M499 307 641 401l43-24-166-132Z" fill="#2b1110" stroke="#e35b22" stroke-width="5"/><path d="M354 276c31 36 60 36 91 0" stroke="#fff0ba" stroke-width="7" opacity=".6"/><path d="M390 216c23 41 34 84 30 130" fill="none" stroke="#ffb342" stroke-width="10" opacity=".75"/></g>
  <rect width="800" height="560" fill="url(#grain)"/>
  <path d="M24 24h752v512H24Z" fill="none" stroke="#fff0ba" stroke-width="2" opacity=".055"/>
</svg>
