<svg xmlns="http://www.w3.org/2000/svg" viewBox="0 0 800 560" role="img" aria-labelledby="title desc">
  <title id="title">Niebla Espejada</title>
  <desc id="desc">mirror mist lake with impossible reflections; art direction: surreal nocturne; collaborative atelier finish.</desc>
  <defs>
    <linearGradient id="bg" x1="0" y1="0" x2="1" y2="1"><stop stop-color="#050b12"/><stop offset=".52" stop-color="#071827"/><stop offset="1" stop-color="#10335b"/></linearGradient>
    <linearGradient id="body" x1="0" y1="0" x2="0" y2="1"><stop stop-color="#2769ad"/><stop offset=".56" stop-color="#102744"/><stop offset="1" stop-color="#050b12"/></linearGradient>
    <radialGradient id="ember" cx=".5" cy=".45" r=".62"><stop stop-color="#efffff"/><stop offset=".34" stop-color="#bff8ff"/><stop offset=".72" stop-color="#53d9ef"/><stop offset="1" stop-color="#2769ad"/></radialGradient>
    <filter id="soft"><feGaussianBlur stdDeviation="18"/></filter>
    <filter id="paint"><feDropShadow dx="0" dy="16" stdDeviation="14" flood-color="#000" flood-opacity=".46"/><feDropShadow dx="0" dy="0" stdDeviation="7" flood-color="#bff8ff" flood-opacity=".2"/></filter>
    <pattern id="grain" width="64" height="64" patternUnits="userSpaceOnUse"><path d="M0 13h64M0 37h64M19 0v64M43 0v64" stroke="#efffff" stroke-width="1" opacity=".025"/></pattern>
  </defs>
  <rect width="800" height="560" fill="url(#bg)"/>
  <circle cx="268" cy="180" r="190" fill="#53d9ef" opacity=".13" filter="url(#soft)"/>
  <circle cx="540" cy="318" r="148" fill="#bff8ff" opacity=".08" filter="url(#soft)"/>
  <circle cx="457" cy="351" r="10" fill="#bff8ff" opacity="0.09"/><circle cx="758" cy="118" r="5" fill="#53d9ef" opacity="0.125"/><circle cx="239" cy="405" r="9" fill="#53d9ef" opacity="0.16"/><circle cx="540" cy="172" r="4" fill="#bff8ff" opacity="0.195"/><circle cx="21" cy="459" r="8" fill="#53d9ef" opacity="0.09"/><circle cx="322" cy="226" r="3" fill="#53d9ef" opacity="0.125"/><circle cx="623" cy="513" r="7" fill="#bff8ff" opacity="0.16"/><circle cx="104" cy="280" r="2" fill="#53d9ef" opacity="0.195"/><circle cx="405" cy="47" r="6" fill="#53d9ef" opacity="0.09"/><circle cx="706" cy="334" r="10" fill="#bff8ff" opacity="0.125"/><circle cx="187" cy="101" r="5" fill="#53d9ef" opacity="0.16"/><circle cx="488" cy="388" r="9" fill="#53d9ef" opacity="0.195"/><circle cx="789" cy="155" r="4" fill="#bff8ff" opacity="0.09"/><circle cx="270" cy="442" r="8" fill="#53d9ef" opacity="0.125"/><circle cx="571" cy="209" r="3" fill="#53d9ef" opacity="0.16"/><circle cx="52" cy="496" r="7" fill="#bff8ff" opacity="0.195"/><circle cx="353" cy="263" r="2" fill="#53d9ef" opacity="0.09"/><circle cx="654" cy="30" r="6" fill="#53d9ef" opacity="0.125"/><path d="M-30 94 C 145 49, 270 130, 445 89 S 730 54, 835 106" fill="none" stroke="#425f79" stroke-width="10" opacity=".055"/><path d="M-30 142 C 145 97, 270 178, 445 137 S 730 102, 835 154" fill="none" stroke="#425f79" stroke-width="12" opacity=".055"/><path d="M-30 190 C 145 145, 270 226, 445 185 S 730 150, 835 202" fill="none" stroke="#425f79" stroke-width="14" opacity=".055"/><path d="M-30 238 C 145 193, 270 274, 445 233 S 730 198, 835 250" fill="none" stroke="#425f79" stroke-width="16" opacity=".055"/><path d="M-30 286 C 145 241, 270 322, 445 281 S 730 246, 835 298" fill="none" stroke="#425f79" stroke-width="18" opacity=".055"/><path d="M-30 334 C 145 289, 270 370, 445 329 S 730 294, 835 346" fill="none" stroke="#425f79" stroke-width="20" opacity=".055"/><path d="M-30 382 C 145 337, 270 418, 445 377 S 730 342, 835 394" fill="none" stroke="#425f79" stroke-width="22" opacity=".055"/><path d="M-30 430 C 145 385, 270 466, 445 425 S 730 390, 835 442" fill="none" stroke="#425f79" stroke-width="24" opacity=".055"/>
  <path d="195.23,177 145,206 94.77,177 94.77,119 145,90 195.23,119" fill="none" stroke="#bff8ff" stroke-width="4" opacity=".22"/><path d="721.19,211.73 653.95,247.91 583.73,217.9 563.41,144.29 608.3,82.51 684.59,79.08 734.83,136.59" fill="none" stroke="#9c8cff" stroke-width="5" opacity=".2"/><path d="M186 488 399 122 614 489" fill="none" stroke="#53d9ef" stroke-width="3" opacity=".14"/>
  <path d="M0 402c121-49 229-34 323-4 80 26 168-52 266-18 70 24 133 20 211-11v191H0Z" fill="#06101a"/><path d="M0 475c177-26 279 19 419-8 142-27 249-16 381 19v74H0Z" fill="#050b12"/>
  <g filter="url(#paint)"><path d="M74 408 C 214 337, 299 450, 401 306 S 584 158, 735 229" fill="none" stroke="url(#ember)" stroke-width="46" stroke-linecap="round" opacity=".88"/><path d="518.26,348.98 448.98,418.26 351.02,418.26 281.74,348.98 281.74,251.02 351.02,181.74 448.98,181.74 518.26,251.02" fill="none" stroke="#efffff" stroke-width="7" opacity=".5"/><path d="437,235.91 474,300 437,364.09 363,364.09 326,300 363,235.91" fill="url(#body)" opacity=".72"/><circle cx="400" cy="300" r="46" fill="url(#ember)"/></g>
  <rect width="800" height="560" fill="url(#grain)"/>
  <path d="M24 24h752v512H24Z" fill="none" stroke="#efffff" stroke-width="2" opacity=".055"/>
</svg>
