<svg xmlns="http://www.w3.org/2000/svg" viewBox="0 0 800 560" role="img" aria-labelledby="title desc">
  <title id="title">Pacto de Ascuas</title>
  <desc id="desc">armored hands making an ember oath; art direction: intimate ritual painting; collaborative atelier finish.</desc>
  <defs>
    <linearGradient id="bg" x1="0" y1="0" x2="1" y2="1"><stop stop-color="#090506"/><stop offset=".52" stop-color="#1b0b0d"/><stop offset="1" stop-color="#431415"/></linearGradient>
    <linearGradient id="body" x1="0" y1="0" x2="0" y2="1"><stop stop-color="#7a241b"/><stop offset=".56" stop-color="#2b1110"/><stop offset="1" stop-color="#090506"/></linearGradient>
    <radialGradient id="ember" cx=".5" cy=".45" r=".62"><stop stop-color="#fff0ba"/><stop offset=".34" stop-color="#ffb342"/><stop offset=".72" stop-color="#e35b22"/><stop offset="1" stop-color="#7a241b"/></radialGradient>
    <filter id="soft"><feGaussianBlur stdDeviation="18"/></filter>
    <filter id="paint"><feDropShadow dx="0" dy="16" stdDeviation="14" flood-color="#000" flood-opacity=".46"/><feDropShadow dx="0" dy="0" stdDeviation="7" flood-color="#ffb342" flood-opacity=".2"/></filter>
    <pattern id="grain" width="64" height="64" patternUnits="userSpaceOnUse"><path d="M0 13h64M0 37h64M19 0v64M43 0v64" stroke="#fff0ba" stroke-width="1" opacity=".025"/></pattern>
  </defs>
  <rect width="800" height="560" fill="url(#bg)"/>
  <circle cx="566" cy="205" r="190" fill="#e35b22" opacity=".13" filter="url(#soft)"/>
  <circle cx="288" cy="358" r="148" fill="#ffb342" opacity=".08" filter="url(#soft)"/>
  <circle cx="270" cy="390" r="7" fill="#ffb342" opacity="0.09"/><circle cx="310" cy="170" r="2" fill="#e35b22" opacity="0.125"/><circle cx="350" cy="470" r="6" fill="#e35b22" opacity="0.16"/><circle cx="390" cy="250" r="10" fill="#ffb342" opacity="0.195"/><circle cx="430" cy="30" r="5" fill="#e35b22" opacity="0.09"/><circle cx="470" cy="330" r="9" fill="#e35b22" opacity="0.125"/><circle cx="510" cy="110" r="4" fill="#ffb342" opacity="0.16"/><circle cx="550" cy="410" r="8" fill="#e35b22" opacity="0.195"/><circle cx="590" cy="190" r="3" fill="#e35b22" opacity="0.09"/><circle cx="630" cy="490" r="7" fill="#ffb342" opacity="0.125"/><circle cx="670" cy="270" r="2" fill="#e35b22" opacity="0.16"/><circle cx="710" cy="50" r="6" fill="#e35b22" opacity="0.195"/><circle cx="750" cy="350" r="10" fill="#ffb342" opacity="0.09"/><circle cx="790" cy="130" r="5" fill="#e35b22" opacity="0.125"/><circle cx="10" cy="430" r="9" fill="#e35b22" opacity="0.16"/><circle cx="50" cy="210" r="4" fill="#ffb342" opacity="0.195"/><circle cx="90" cy="510" r="8" fill="#e35b22" opacity="0.09"/><circle cx="130" cy="290" r="3" fill="#e35b22" opacity="0.125"/><path d="M-30 93 C 145 48, 270 129, 445 88 S 730 53, 835 105" fill="none" stroke="#4f3430" stroke-width="10" opacity=".055"/><path d="M-30 141 C 145 96, 270 177, 445 136 S 730 101, 835 153" fill="none" stroke="#4f3430" stroke-width="12" opacity=".055"/><path d="M-30 189 C 145 144, 270 225, 445 184 S 730 149, 835 201" fill="none" stroke="#4f3430" stroke-width="14" opacity=".055"/><path d="M-30 237 C 145 192, 270 273, 445 232 S 730 197, 835 249" fill="none" stroke="#4f3430" stroke-width="16" opacity=".055"/><path d="M-30 285 C 145 240, 270 321, 445 280 S 730 245, 835 297" fill="none" stroke="#4f3430" stroke-width="18" opacity=".055"/><path d="M-30 333 C 145 288, 270 369, 445 328 S 730 293, 835 345" fill="none" stroke="#4f3430" stroke-width="20" opacity=".055"/><path d="M-30 381 C 145 336, 270 417, 445 376 S 730 341, 835 393" fill="none" stroke="#4f3430" stroke-width="22" opacity=".055"/><path d="M-30 429 C 145 384, 270 465, 445 424 S 730 389, 835 441" fill="none" stroke="#4f3430" stroke-width="24" opacity=".055"/>
  <path d="M78 122 188 159 91 183Z" fill="#e35b22" opacity=".16"/><path d="M586 86 746 118 614 164Z" fill="#ffb342" opacity=".1"/><path d="M278 508 330 368 378 508Z" fill="#e35b22" opacity=".35"/>
  <path d="M0 392c96-45 191-64 285-31 87 31 156-47 255-20 98 26 165-31 260-3v222H0Z" fill="#10080a"/><path d="M0 456c146-28 262 26 409-1 134-25 244-10 391 28v77H0Z" fill="#090506"/>
  <g filter="url(#paint)"><path d="M74 356c112-98 213-114 303-47l-43 70c-91-39-168-22-240 47Z" fill="url(#body)" stroke="#b99754" stroke-width="7"/><path d="M724 356c-112-98-213-114-303-47l43 70c91-39 168-22 240 47Z" fill="url(#body)" stroke="#b99754" stroke-width="7"/><circle cx="400" cy="319" r="68" fill="url(#ember)" opacity=".94"/><path d="400,214 499.86,286.55 461.72,403.95 338.28,403.95 300.14,286.55" fill="none" stroke="#ffb342" stroke-width="5" opacity=".65"/></g>
  <rect width="800" height="560" fill="url(#grain)"/>
  <path d="M24 24h752v512H24Z" fill="none" stroke="#fff0ba" stroke-width="2" opacity=".055"/>
</svg>
