<svg xmlns="http://www.w3.org/2000/svg" viewBox="0 0 800 560" role="img" aria-labelledby="title desc">
  <title id="title">Prision Glacial</title>
  <desc id="desc">unit trapped inside translucent ice polyhedron; art direction: cold architectural fantasy; collaborative atelier finish.</desc>
  <defs>
    <linearGradient id="bg" x1="0" y1="0" x2="1" y2="1"><stop stop-color="#050b12"/><stop offset=".52" stop-color="#071827"/><stop offset="1" stop-color="#10335b"/></linearGradient>
    <linearGradient id="body" x1="0" y1="0" x2="0" y2="1"><stop stop-color="#2769ad"/><stop offset=".56" stop-color="#102744"/><stop offset="1" stop-color="#050b12"/></linearGradient>
    <radialGradient id="ember" cx=".5" cy=".45" r=".62"><stop stop-color="#efffff"/><stop offset=".34" stop-color="#bff8ff"/><stop offset=".72" stop-color="#53d9ef"/><stop offset="1" stop-color="#2769ad"/></radialGradient>
    <filter id="soft"><feGaussianBlur stdDeviation="18"/></filter>
    <filter id="paint"><feDropShadow dx="0" dy="16" stdDeviation="14" flood-color="#000" flood-opacity=".46"/><feDropShadow dx="0" dy="0" stdDeviation="7" flood-color="#bff8ff" flood-opacity=".2"/></filter>
    <pattern id="grain" width="64" height="64" patternUnits="userSpaceOnUse"><path d="M0 13h64M0 37h64M19 0v64M43 0v64" stroke="#efffff" stroke-width="1" opacity=".025"/></pattern>
  </defs>
  <rect width="800" height="560" fill="url(#bg)"/>
  <circle cx="268" cy="180" r="190" fill="#53d9ef" opacity=".13" filter="url(#soft)"/>
  <circle cx="540" cy="318" r="148" fill="#bff8ff" opacity=".08" filter="url(#soft)"/>
  <circle cx="416" cy="88" r="6" fill="#bff8ff" opacity="0.09"/><circle cx="594" cy="114" r="10" fill="#53d9ef" opacity="0.125"/><circle cx="772" cy="140" r="5" fill="#53d9ef" opacity="0.16"/><circle cx="130" cy="166" r="9" fill="#bff8ff" opacity="0.195"/><circle cx="308" cy="192" r="4" fill="#53d9ef" opacity="0.09"/><circle cx="486" cy="218" r="8" fill="#53d9ef" opacity="0.125"/><circle cx="664" cy="244" r="3" fill="#bff8ff" opacity="0.16"/><circle cx="22" cy="270" r="7" fill="#53d9ef" opacity="0.195"/><circle cx="200" cy="296" r="2" fill="#53d9ef" opacity="0.09"/><circle cx="378" cy="322" r="6" fill="#bff8ff" opacity="0.125"/><circle cx="556" cy="348" r="10" fill="#53d9ef" opacity="0.16"/><circle cx="734" cy="374" r="5" fill="#53d9ef" opacity="0.195"/><circle cx="92" cy="400" r="9" fill="#bff8ff" opacity="0.09"/><circle cx="270" cy="426" r="4" fill="#53d9ef" opacity="0.125"/><circle cx="448" cy="452" r="8" fill="#53d9ef" opacity="0.16"/><circle cx="626" cy="478" r="3" fill="#bff8ff" opacity="0.195"/><circle cx="804" cy="504" r="7" fill="#53d9ef" opacity="0.09"/><circle cx="162" cy="10" r="2" fill="#53d9ef" opacity="0.125"/><path d="M-30 84 C 145 39, 270 120, 445 79 S 730 44, 835 96" fill="none" stroke="#425f79" stroke-width="10" opacity=".055"/><path d="M-30 132 C 145 87, 270 168, 445 127 S 730 92, 835 144" fill="none" stroke="#425f79" stroke-width="12" opacity=".055"/><path d="M-30 180 C 145 135, 270 216, 445 175 S 730 140, 835 192" fill="none" stroke="#425f79" stroke-width="14" opacity=".055"/><path d="M-30 228 C 145 183, 270 264, 445 223 S 730 188, 835 240" fill="none" stroke="#425f79" stroke-width="16" opacity=".055"/><path d="M-30 276 C 145 231, 270 312, 445 271 S 730 236, 835 288" fill="none" stroke="#425f79" stroke-width="18" opacity=".055"/><path d="M-30 324 C 145 279, 270 360, 445 319 S 730 284, 835 336" fill="none" stroke="#425f79" stroke-width="20" opacity=".055"/><path d="M-30 372 C 145 327, 270 408, 445 367 S 730 332, 835 384" fill="none" stroke="#425f79" stroke-width="22" opacity=".055"/><path d="M-30 420 C 145 375, 270 456, 445 415 S 730 380, 835 432" fill="none" stroke="#425f79" stroke-width="24" opacity=".055"/>
  <path d="195.23,177 145,206 94.77,177 94.77,119 145,90 195.23,119" fill="none" stroke="#bff8ff" stroke-width="4" opacity=".22"/><path d="721.19,211.73 653.95,247.91 583.73,217.9 563.41,144.29 608.3,82.51 684.59,79.08 734.83,136.59" fill="none" stroke="#9c8cff" stroke-width="5" opacity=".2"/><path d="M186 488 399 122 614 489" fill="none" stroke="#53d9ef" stroke-width="3" opacity=".14"/>
  <path d="M0 402c121-49 229-34 323-4 80 26 168-52 266-18 70 24 133 20 211-11v191H0Z" fill="#06101a"/><path d="M0 475c177-26 279 19 419-8 142-27 249-16 381 19v74H0Z" fill="#050b12"/>
  <g filter="url(#paint)"><path d="M74 408 C 214 337, 299 450, 401 306 S 584 158, 735 229" fill="none" stroke="url(#ember)" stroke-width="46" stroke-linecap="round" opacity=".88"/><path d="518.26,348.98 448.98,418.26 351.02,418.26 281.74,348.98 281.74,251.02 351.02,181.74 448.98,181.74 518.26,251.02" fill="none" stroke="#efffff" stroke-width="7" opacity=".5"/><path d="437,235.91 474,300 437,364.09 363,364.09 326,300 363,235.91" fill="url(#body)" opacity=".72"/><circle cx="400" cy="300" r="46" fill="url(#ember)"/></g>
  <rect width="800" height="560" fill="url(#grain)"/>
  <path d="M24 24h752v512H24Z" fill="none" stroke="#efffff" stroke-width="2" opacity=".055"/>
</svg>
