<svg xmlns="http://www.w3.org/2000/svg" viewBox="0 0 800 560" role="img" aria-labelledby="title desc">
  <title id="title">Torre del Horizonte</title>
  <desc id="desc">slender observatory above clouds; art direction: romantic architectural painting; collaborative atelier finish.</desc>
  <defs>
    <linearGradient id="bg" x1="0" y1="0" x2="1" y2="1"><stop stop-color="#050b12"/><stop offset=".52" stop-color="#071827"/><stop offset="1" stop-color="#10335b"/></linearGradient>
    <linearGradient id="body" x1="0" y1="0" x2="0" y2="1"><stop stop-color="#2769ad"/><stop offset=".56" stop-color="#102744"/><stop offset="1" stop-color="#050b12"/></linearGradient>
    <radialGradient id="ember" cx=".5" cy=".45" r=".62"><stop stop-color="#efffff"/><stop offset=".34" stop-color="#bff8ff"/><stop offset=".72" stop-color="#53d9ef"/><stop offset="1" stop-color="#2769ad"/></radialGradient>
    <filter id="soft"><feGaussianBlur stdDeviation="18"/></filter>
    <filter id="paint"><feDropShadow dx="0" dy="16" stdDeviation="14" flood-color="#000" flood-opacity=".46"/><feDropShadow dx="0" dy="0" stdDeviation="7" flood-color="#bff8ff" flood-opacity=".2"/></filter>
    <pattern id="grain" width="64" height="64" patternUnits="userSpaceOnUse"><path d="M0 13h64M0 37h64M19 0v64M43 0v64" stroke="#efffff" stroke-width="1" opacity=".025"/></pattern>
  </defs>
  <rect width="800" height="560" fill="url(#bg)"/>
  <circle cx="268" cy="180" r="190" fill="#53d9ef" opacity=".13" filter="url(#soft)"/>
  <circle cx="540" cy="318" r="148" fill="#bff8ff" opacity=".08" filter="url(#soft)"/>
  <circle cx="635" cy="445" r="4" fill="#bff8ff" opacity="0.09"/><circle cx="610" cy="70" r="8" fill="#53d9ef" opacity="0.125"/><circle cx="585" cy="215" r="3" fill="#53d9ef" opacity="0.16"/><circle cx="560" cy="360" r="7" fill="#bff8ff" opacity="0.195"/><circle cx="535" cy="505" r="2" fill="#53d9ef" opacity="0.09"/><circle cx="510" cy="130" r="6" fill="#53d9ef" opacity="0.125"/><circle cx="485" cy="275" r="10" fill="#bff8ff" opacity="0.16"/><circle cx="460" cy="420" r="5" fill="#53d9ef" opacity="0.195"/><circle cx="435" cy="45" r="9" fill="#53d9ef" opacity="0.09"/><circle cx="410" cy="190" r="4" fill="#bff8ff" opacity="0.125"/><circle cx="385" cy="335" r="8" fill="#53d9ef" opacity="0.16"/><circle cx="360" cy="480" r="3" fill="#53d9ef" opacity="0.195"/><circle cx="335" cy="105" r="7" fill="#bff8ff" opacity="0.09"/><circle cx="310" cy="250" r="2" fill="#53d9ef" opacity="0.125"/><circle cx="285" cy="395" r="6" fill="#53d9ef" opacity="0.16"/><circle cx="260" cy="20" r="10" fill="#bff8ff" opacity="0.195"/><circle cx="235" cy="165" r="5" fill="#53d9ef" opacity="0.09"/><circle cx="210" cy="310" r="9" fill="#53d9ef" opacity="0.125"/><path d="M-30 94 C 145 49, 270 130, 445 89 S 730 54, 835 106" fill="none" stroke="#425f79" stroke-width="10" opacity=".055"/><path d="M-30 142 C 145 97, 270 178, 445 137 S 730 102, 835 154" fill="none" stroke="#425f79" stroke-width="12" opacity=".055"/><path d="M-30 190 C 145 145, 270 226, 445 185 S 730 150, 835 202" fill="none" stroke="#425f79" stroke-width="14" opacity=".055"/><path d="M-30 238 C 145 193, 270 274, 445 233 S 730 198, 835 250" fill="none" stroke="#425f79" stroke-width="16" opacity=".055"/><path d="M-30 286 C 145 241, 270 322, 445 281 S 730 246, 835 298" fill="none" stroke="#425f79" stroke-width="18" opacity=".055"/><path d="M-30 334 C 145 289, 270 370, 445 329 S 730 294, 835 346" fill="none" stroke="#425f79" stroke-width="20" opacity=".055"/><path d="M-30 382 C 145 337, 270 418, 445 377 S 730 342, 835 394" fill="none" stroke="#425f79" stroke-width="22" opacity=".055"/><path d="M-30 430 C 145 385, 270 466, 445 425 S 730 390, 835 442" fill="none" stroke="#425f79" stroke-width="24" opacity=".055"/>
  <path d="195.23,177 145,206 94.77,177 94.77,119 145,90 195.23,119" fill="none" stroke="#bff8ff" stroke-width="4" opacity=".22"/><path d="721.19,211.73 653.95,247.91 583.73,217.9 563.41,144.29 608.3,82.51 684.59,79.08 734.83,136.59" fill="none" stroke="#9c8cff" stroke-width="5" opacity=".2"/><path d="M186 488 399 122 614 489" fill="none" stroke="#53d9ef" stroke-width="3" opacity=".14"/>
  <path d="M0 402c121-49 229-34 323-4 80 26 168-52 266-18 70 24 133 20 211-11v191H0Z" fill="#06101a"/><path d="M0 475c177-26 279 19 419-8 142-27 249-16 381 19v74H0Z" fill="#050b12"/>
  <g filter="url(#paint)"><path d="M203 504 257 220 400 112 546 220 603 504Z" fill="url(#body)" stroke="#9c8cff" stroke-width="8"/><path d="M311 504 336 297 400 242 466 297 491 504Z" fill="#050b12"/><path d="400,138 459.42,166.61 474.09,230.91 432.98,282.47 367.02,282.47 325.91,230.91 340.58,166.61" fill="url(#ember)" opacity=".8"/><path d="M255 247h290M229 358h342" stroke="#53d9ef" stroke-width="8" opacity=".45"/><circle cx="400" cy="396" r="45" fill="#bff8ff" opacity=".22"/></g>
  <rect width="800" height="560" fill="url(#grain)"/>
  <path d="M24 24h752v512H24Z" fill="none" stroke="#efffff" stroke-width="2" opacity=".055"/>
</svg>
